<?xml version="1.0" encoding="UTF-8"?>
<svg xmlns="http://www.w3.org/2000/svg" width="345" height="297" viewBox="0 0 345 297" fill="none">
  <mask id="mask0_945_68853" style="mask-type:luminance" maskUnits="userSpaceOnUse" x="87" y="26" width="185" height="226">
    <path d="M87.293 26.3633H271.952V251.233H87.293V26.3633Z" fill="white"></path>
  </mask>
  <g mask="url(#mask0_945_68853)">
    <path d="M270.113 230.623C272.692 228.092 270.805 226.7 268.8 225.549C265.259 223.518 147.588 156.016 137.846 150.427C129.763 145.79 120.429 144.245 111.196 145.206C102.318 146.131 84.7676 151.599 87.8849 163.846C89.7528 171.184 99.0364 174.829 105.02 178.273C118.428 185.988 216.106 242.198 226.844 248.377C229.279 249.779 231.423 251.066 234.42 250.625C237.916 250.111 239.868 247.309 236.416 245.209C227.762 239.944 109.94 172.469 105.821 170.1C103.372 168.692 100.715 167.366 99.1982 164.862C96.0555 159.673 100.883 155.051 105.411 153.093C110.4 150.935 116.211 150.523 121.536 151.432C128.686 152.654 135.151 157.48 141.314 161.017C155.516 169.169 251.825 224.449 261.475 229.988C264.127 231.51 267.265 232.205 270.113 230.623Z" fill="white"></path>
    <path d="M233.256 250.981C230.843 250.981 228.925 249.876 226.91 248.715L226.74 248.617L104.917 178.512C103.909 177.933 102.816 177.352 101.659 176.736C95.8449 173.646 89.2555 170.142 87.6795 163.952C86.8653 160.752 87.3876 157.789 89.2327 155.143C93.8789 148.479 105.619 145.623 111.178 145.044C120.939 144.028 130.2 145.843 137.958 150.293L268.911 225.415C270.115 226.106 271.413 226.945 271.57 228.167C271.676 228.995 271.25 229.866 270.267 230.829C270.254 230.843 270.238 230.855 270.221 230.864C268.426 231.861 265.434 232.56 261.371 230.228L141.21 161.257C139.882 160.495 138.57 159.691 137.181 158.841C132.212 155.797 127.074 152.65 121.503 151.698C115.865 150.735 110.182 151.319 105.5 153.344C102.837 154.496 99.6504 156.797 98.6917 159.801C98.1568 161.476 98.3907 163.159 99.3866 164.803C100.724 167.011 102.998 168.3 105.197 169.547C105.444 169.687 105.689 169.826 105.932 169.966C106.517 170.302 109.39 171.949 113.915 174.542C142.405 190.87 229.103 240.558 236.532 245.077C238.459 246.25 238.531 247.492 238.402 248.128C238.128 249.474 236.542 250.585 234.455 250.892C234.041 250.952 233.642 250.981 233.256 250.981ZM116.413 145.201C114.703 145.201 112.972 145.292 111.223 145.474C105.732 146.046 94.1436 148.854 89.5867 155.39C87.8165 157.928 87.3158 160.773 88.0979 163.845C89.6266 169.851 96.1265 173.307 101.861 176.355C103.022 176.972 104.118 177.555 105.132 178.139L227.126 248.342C229.494 249.706 231.54 250.884 234.392 250.465C236.3 250.184 237.741 249.211 237.979 248.042C238.163 247.136 237.569 246.214 236.308 245.446C228.884 240.93 142.189 191.244 113.701 174.917C109.175 172.323 106.302 170.676 105.717 170.34C105.474 170.201 105.23 170.062 104.984 169.923C102.737 168.649 100.413 167.331 99.0174 165.027C97.9542 163.272 97.7064 161.469 98.2807 159.67C99.2834 156.528 102.579 154.138 105.329 152.949C110.086 150.891 115.856 150.296 121.576 151.273C127.228 152.239 132.403 155.408 137.407 158.473C138.793 159.322 140.102 160.124 141.425 160.884L261.586 229.854C263.726 231.083 266.918 232.19 269.986 230.502C270.851 229.647 271.229 228.902 271.142 228.223C271.01 227.197 269.81 226.429 268.696 225.79L137.743 150.668C131.453 147.059 124.16 145.201 116.413 145.201Z" fill="black"></path>
    <path d="M271.738 228.097L271.69 110.447L121.004 29.4492L95.9604 36.6835L104.477 148.465L139.976 160.181C139.976 160.181 261.87 230.315 262.111 230.443C262.111 230.443 263.148 231.124 264.713 231.502C264.795 231.527 267.353 232.415 270.167 230.923C271.781 230.067 271.738 228.097 271.738 228.097Z" fill="#FDFFFF"></path>
    <path d="M266.704 232.062C265.658 232.062 264.896 231.848 264.658 231.771C263.078 231.388 262.035 230.711 261.992 230.682C261.768 230.564 145.131 163.455 139.887 160.438L104.408 148.729C104.326 148.702 104.268 148.627 104.261 148.54L95.7443 36.7594C95.7365 36.6576 95.8015 36.5641 95.8996 36.5357L120.944 29.3014C120.998 29.2859 121.056 29.2919 121.106 29.3187L271.792 110.316C271.861 110.354 271.905 110.427 271.905 110.506L271.953 228.156C271.955 228.271 271.965 230.273 270.268 231.173C268.958 231.867 267.701 232.062 266.704 232.062ZM104.68 148.364L140.043 160.035C140.057 160.04 140.07 160.046 140.083 160.053C141.299 160.753 261.717 230.038 262.213 230.313C262.239 230.328 263.256 230.988 264.763 231.352C264.768 231.353 264.785 231.359 264.79 231.36C265.227 231.501 267.535 232.134 270.065 230.792C271.538 230.01 271.522 228.179 271.521 228.161C271.521 228.159 271.521 228.158 271.521 228.156L271.473 110.635L120.979 29.7404L96.1878 36.9016L104.68 148.364Z" fill="black"></path>
    <path d="M261.652 213.879L261.612 125.479C261.611 122.674 260.103 120.085 257.664 118.699L134.466 48.6849C126.869 44.3679 117.435 49.8245 117.389 58.5616L116.965 138.48C116.965 138.48 252.898 215.847 253.112 215.961L258.712 218.981C260.04 219.697 261.652 218.735 261.652 217.226V213.879Z" fill="black"></path>
    <path d="M259.659 219.404C259.3 219.404 258.94 219.315 258.609 219.137L253.009 216.117C252.796 216.004 122.408 141.792 116.858 138.633C116.79 138.595 116.749 138.523 116.749 138.445L117.172 58.5266C117.195 54.346 119.368 50.6005 122.987 48.5073C126.606 46.4142 130.937 46.3978 134.572 48.4635L257.77 118.477C260.271 119.899 261.825 122.569 261.827 125.445L261.867 213.845V217.192C261.867 217.977 261.465 218.686 260.79 219.089C260.439 219.299 260.049 219.404 259.659 219.404ZM117.181 138.321C121.704 140.895 252.748 215.48 253.214 215.737L258.814 218.757C259.37 219.057 260.026 219.043 260.569 218.719C261.112 218.395 261.436 217.824 261.436 217.192V213.846L261.395 125.446C261.394 122.724 259.923 120.197 257.557 118.853L134.358 48.8387C130.858 46.8496 126.688 46.8655 123.203 48.881C119.718 50.8965 117.625 54.5032 117.604 58.529L117.181 138.321Z" fill="black"></path>
    <path d="M238.257 247.544L238.209 129.394L87.5236 42.8984L87.521 160.671C87.521 160.671 87.1471 164.51 90.6255 168.85C93.5816 172.539 106.495 179.128 106.495 179.128C106.495 179.128 228.389 249.262 228.631 249.389C228.631 249.389 229.667 250.071 231.233 250.449C231.314 250.474 233.873 251.362 236.686 249.87C238.3 249.014 238.257 247.544 238.257 247.544Z" fill="white"></path>
    <path d="M233.223 250.993C232.176 250.993 231.415 250.779 231.177 250.702C229.597 250.32 228.554 249.642 228.511 249.613C228.286 249.496 111.364 182.222 106.387 179.358C105.867 179.094 93.407 172.711 90.4561 169.029C86.963 164.67 87.2895 160.854 87.3052 160.693L87.3067 42.9422C87.3067 42.8652 87.3477 42.794 87.4144 42.7556C87.481 42.717 87.563 42.717 87.6299 42.7551L238.316 129.251C238.382 129.289 238.424 129.36 238.424 129.438L238.472 247.588C238.474 247.699 238.47 249.211 236.786 250.104C235.477 250.798 234.221 250.993 233.223 250.993ZM87.7382 43.3148L87.7356 160.714C87.7311 160.773 87.4165 164.546 90.7927 168.759C93.6862 172.37 106.464 178.914 106.592 178.98C107.818 179.685 228.236 248.969 228.733 249.244C228.758 249.26 229.775 249.919 231.282 250.284C231.287 250.285 231.304 250.29 231.309 250.292C231.746 250.432 234.053 251.065 236.584 249.723C238.052 248.944 238.042 247.649 238.04 247.594C238.04 247.592 238.04 247.59 238.04 247.588L237.992 129.563L87.7382 43.3148Z" fill="black"></path>
    <path d="M270.112 112.33C273.218 110.537 270.805 108.407 268.799 107.256C265.259 105.225 147.588 37.723 137.847 32.1344C129.763 27.4972 120.429 25.9517 111.196 26.9132C102.318 27.8381 84.7677 33.3061 87.8849 45.5527C89.7528 52.8907 99.0364 56.5361 105.02 59.9796C118.427 67.6949 216.105 123.905 226.844 130.084C229.279 131.486 231.423 132.773 234.42 132.332C237.916 131.818 239.868 129.016 236.416 126.916C227.762 121.651 109.94 54.1761 105.821 51.8068C103.372 50.3987 100.715 49.0734 99.1982 46.5686C96.0555 41.3802 100.883 36.7584 105.411 34.8001C110.4 32.642 116.211 32.2295 121.536 33.1393C128.686 34.3611 135.151 39.1866 141.314 42.7243C155.516 50.8761 251.825 106.156 261.475 111.695C264.126 113.217 267.265 113.911 270.112 112.33Z" fill="white"></path>
    <path d="M233.256 132.602C230.843 132.602 228.925 131.497 226.911 130.336L226.74 130.238L104.916 60.1334C103.909 59.5534 102.816 58.9725 101.659 58.3572C95.8449 55.2664 89.2555 51.7632 87.6795 45.5727C86.8653 42.3735 87.3876 39.4098 89.2327 36.7637C93.8789 30.0999 105.619 27.2443 111.178 26.6655C120.939 25.6489 130.2 27.4638 137.958 31.9141L268.911 107.036C269.996 107.659 271.817 108.92 271.819 110.37C271.82 111.161 271.283 111.872 270.224 112.484C270.223 112.484 270.222 112.485 270.221 112.485C268.426 113.482 265.433 114.181 261.371 111.849L141.21 42.8783C139.882 42.1157 138.57 41.3122 137.181 40.4616C132.212 37.4181 127.074 34.2708 121.503 33.319C115.865 32.3555 110.182 32.9402 105.5 34.9651C102.837 36.1167 99.6502 38.4176 98.6914 41.4216C98.1566 43.0969 98.3905 44.7799 99.3863 46.4238C100.724 48.6317 102.998 49.921 105.197 51.168C105.443 51.3076 105.689 51.4467 105.932 51.587C106.516 51.9231 109.389 53.5696 113.915 56.1633C142.405 72.4911 229.103 122.179 236.532 126.699C238.459 127.871 238.53 129.113 238.401 129.749C238.128 131.095 236.542 132.206 234.455 132.513C234.041 132.573 233.642 132.602 233.256 132.602ZM116.413 26.8219C114.703 26.8219 112.972 26.9123 111.223 27.0946C105.732 27.6663 94.1436 30.4749 89.5867 37.0103C87.8165 39.549 87.3158 42.394 88.0979 45.4661C89.6266 51.472 96.1265 54.9273 101.861 57.9762C103.022 58.593 104.118 59.1757 105.132 59.7593L227.126 129.962C229.494 131.327 231.539 132.505 234.392 132.085C236.3 131.805 237.741 130.831 237.979 129.663C238.163 128.756 237.569 127.834 236.307 127.067C228.883 122.55 142.189 72.8645 113.7 56.5374C109.175 53.9437 106.301 52.2967 105.717 51.9606C105.474 51.821 105.229 51.6823 104.984 51.5432C102.737 50.269 100.413 48.9515 99.0172 46.6473C97.954 44.892 97.7061 43.0897 98.2804 41.2904C99.2832 38.1488 102.579 35.7584 105.329 34.569C110.086 32.5113 115.856 31.9162 121.576 32.8936C127.228 33.8594 132.402 37.0287 137.406 40.0935C138.792 40.9425 140.102 41.7444 141.425 42.504L261.585 111.475C263.731 112.706 266.935 113.816 270.01 112.109C270.925 111.58 271.388 110.995 271.387 110.37C271.386 109.091 269.504 107.874 268.696 107.41L137.743 32.2884C131.453 28.6799 124.16 26.8219 116.413 26.8219Z" fill="black"></path>
    <path d="M131.846 46.8004C128.061 44.6574 124.293 43.8592 122.105 43.451C119.285 42.925 112.739 41.848 105.98 45.1122C103.81 46.1601 100.56 48.6396 100.848 48.5442L103.081 89.2396L147.836 99.4613L148.059 56.4322C148.059 56.4322 140.262 51.7005 131.846 46.8004Z" fill="black"></path>
    <path d="M238.325 248.32C238.275 248.518 238.191 248.758 238.046 249.01C238.029 249.04 238.01 249.07 237.99 249.101C237.759 249.467 237.395 249.849 236.821 250.153C236.821 250.153 236.819 250.153 236.819 250.156C236.079 250.548 235.356 250.775 234.691 250.896C233.101 251.189 231.846 250.876 231.477 250.766C231.464 250.764 231.451 250.76 231.44 250.757C231.399 250.745 231.373 250.736 231.367 250.734C231.27 250.71 231.173 250.684 231.08 250.658C231.069 250.656 231.058 250.654 231.05 250.65C229.662 250.263 228.765 249.674 228.765 249.674C228.763 249.672 228.748 249.664 228.72 249.649C228.705 249.64 228.687 249.629 228.666 249.618C225.758 247.951 160.027 210.135 126.268 190.712C125.757 190.417 125.254 190.128 124.758 189.843C124.71 189.815 124.665 189.789 124.618 189.761C124.268 189.56 123.923 189.362 123.582 189.165C123.409 189.066 123.241 188.969 123.071 188.872C122.821 188.727 122.57 188.583 122.324 188.443C121.243 187.819 120.206 187.224 119.218 186.654C119.064 186.566 118.913 186.479 118.765 186.393C118.585 186.292 118.409 186.19 118.234 186.089C117.945 185.923 117.662 185.759 117.382 185.599C115.267 184.382 113.414 183.314 111.867 182.426C111.688 182.322 111.511 182.221 111.337 182.119C110.881 181.858 110.456 181.614 110.064 181.388C109.919 181.304 109.779 181.224 109.643 181.146C109.399 181.006 109.171 180.874 108.955 180.749C108.884 180.708 108.812 180.669 108.745 180.628C108.702 180.605 108.659 180.581 108.618 180.555C108.459 180.464 108.31 180.378 108.169 180.298C108.111 180.264 108.053 180.231 107.999 180.199C107.775 180.072 107.578 179.957 107.408 179.86C107.237 179.761 107.095 179.679 106.979 179.612C106.944 179.591 106.91 179.571 106.877 179.554C106.834 179.53 106.797 179.509 106.767 179.491C106.73 179.47 106.7 179.453 106.679 179.44C106.646 179.42 106.629 179.412 106.629 179.412C106.629 179.412 106.627 179.409 106.62 179.407C106.431 179.31 103.393 177.753 99.9777 175.759C99.9756 175.757 99.9734 175.755 99.9713 175.755C96.8473 173.93 93.4084 171.74 91.5465 169.971C91.2661 169.708 91.0223 169.451 90.8238 169.207C90.8001 169.181 90.7807 169.157 90.7612 169.134C88.3449 166.122 87.7883 163.352 87.674 161.939C87.6718 161.928 87.6718 161.919 87.6718 161.908C87.6222 161.302 87.6567 160.955 87.6567 160.955L87.6589 43.1879C87.6567 43.1858 87.6567 43.1858 87.6589 43.1836L96.8516 48.4606L238.344 129.679V129.83L238.391 247.828C238.391 247.828 238.398 248.026 238.325 248.32Z" fill="#FDFFFF"></path>
    <path d="M233.357 251.194C232.398 251.194 231.686 251.015 231.424 250.937C231.415 250.936 231.407 250.933 231.399 250.931C231.395 250.93 231.377 250.926 231.374 250.925L231.3 250.901C231.215 250.881 231.116 250.854 231.02 250.827C231.022 250.828 231.001 250.824 230.978 250.815C229.582 250.425 228.683 249.841 228.645 249.816C228.645 249.816 228.644 249.815 228.643 249.815L228.616 249.8C228.614 249.799 228.599 249.79 228.597 249.789C228.588 249.784 228.579 249.778 228.568 249.773C225.669 248.111 160.44 210.584 126.159 190.861C125.648 190.565 125.145 190.276 124.649 189.991L122.941 189.008C122.698 188.868 122.455 188.728 122.216 188.592C121.629 188.253 121.055 187.923 120.495 187.6L118.655 186.541C118.477 186.44 118.3 186.339 118.124 186.237L117.835 186.07C117.646 185.961 117.459 185.854 117.274 185.748L115.158 184.53C113.904 183.808 112.766 183.153 111.759 182.574L111.227 182.267C110.773 182.007 110.347 181.763 109.955 181.536C109.834 181.466 109.717 181.399 109.603 181.334L109.535 181.295C109.29 181.154 109.061 181.022 108.845 180.897L108.778 180.859C108.728 180.831 108.679 180.803 108.632 180.774C108.591 180.751 108.545 180.726 108.502 180.699L107.887 180.345C107.763 180.275 107.643 180.206 107.532 180.142L107.3 180.009C107.128 179.909 106.986 179.827 106.87 179.761C106.833 179.738 106.803 179.721 106.775 179.706L106.566 179.586C106.546 179.574 106.534 179.567 106.531 179.566C106.53 179.565 106.529 179.565 106.528 179.564C106.526 179.563 106.523 179.562 106.521 179.561C106.391 179.495 103.308 177.915 99.8678 175.907C99.8639 175.905 99.86 175.902 99.8564 175.9C95.8172 173.54 92.971 171.585 91.3967 170.089C91.1072 169.817 90.8573 169.553 90.6552 169.305C90.6366 169.285 90.6146 169.259 90.5926 169.232C88.1366 166.171 87.5744 163.345 87.4581 161.927C87.4553 161.908 87.4547 161.891 87.4547 161.87C87.4048 161.269 87.4391 160.911 87.4406 160.895L87.4417 43.1737C87.4406 43.1651 87.44 43.1563 87.44 43.1476C87.44 43.0896 87.4652 43.0318 87.5069 42.991C87.5759 42.9237 87.6812 42.9103 87.7649 42.9582L96.9577 48.2353L238.45 129.453C238.517 129.492 238.558 129.563 238.558 129.641V129.792L238.606 247.789C238.606 247.792 238.612 248.015 238.532 248.334C238.467 248.594 238.366 248.844 238.232 249.079C238.213 249.112 238.191 249.146 238.17 249.179C237.882 249.636 237.466 250.013 236.935 250.298C236.93 250.301 236.924 250.305 236.918 250.308C236.226 250.675 235.49 250.931 234.728 251.07C234.236 251.16 233.773 251.194 233.357 251.194ZM231.497 250.511C231.502 250.512 231.506 250.513 231.508 250.514C231.51 250.515 231.535 250.52 231.537 250.521C231.877 250.622 233.105 250.931 234.651 250.645C235.365 250.516 236.055 250.276 236.704 249.933C236.708 249.93 236.713 249.927 236.719 249.925C237.189 249.675 237.555 249.346 237.806 248.947C237.825 248.919 237.842 248.892 237.858 248.865C237.973 248.664 238.059 248.451 238.114 248.229C238.178 247.973 238.175 247.797 238.175 247.796L238.127 129.766L96.7432 48.6094L87.8736 43.5179L87.8715 160.917C87.8702 160.941 87.8389 161.277 87.8859 161.852C87.8864 161.857 87.8866 161.871 87.8866 161.875C87.9986 163.248 88.5405 165.984 90.9285 168.96C90.9443 168.98 90.9613 169 90.982 169.023C91.1801 169.266 91.4165 169.515 91.6931 169.775C93.245 171.249 96.066 173.185 100.079 175.53C100.083 175.532 100.087 175.535 100.091 175.537C103.514 177.535 106.579 179.106 106.717 179.176C106.72 179.178 106.722 179.179 106.725 179.18C106.727 179.182 106.747 179.191 106.789 179.216L106.98 179.326C107.014 179.345 107.053 179.367 107.092 179.391C107.202 179.454 107.345 179.536 107.515 179.635L107.748 179.769C107.858 179.832 107.976 179.9 108.104 179.973L108.724 180.329C108.768 180.357 108.806 180.378 108.844 180.399C108.9 180.433 108.945 180.458 108.991 180.484L109.061 180.524C109.277 180.649 109.506 180.781 109.749 180.921L109.817 180.959C109.932 181.025 110.05 181.092 110.171 181.163C110.563 181.389 110.988 181.633 111.443 181.894L111.974 182.2C112.981 182.779 114.119 183.434 115.373 184.157L117.488 185.374C117.673 185.479 117.861 185.587 118.05 185.696L118.34 185.863C118.515 185.965 118.691 186.066 118.869 186.167L120.71 187.226C121.27 187.549 121.844 187.879 122.431 188.217C122.669 188.353 122.912 188.494 123.156 188.634L124.866 189.618C125.36 189.902 125.863 190.191 126.374 190.487C160.655 210.21 225.884 247.737 228.771 249.393C228.781 249.397 228.799 249.407 228.814 249.417C228.846 249.434 228.868 249.446 228.885 249.458C228.952 249.501 229.817 250.045 231.106 250.403C231.112 250.405 231.117 250.407 231.123 250.409C231.128 250.41 231.134 250.411 231.136 250.412C231.227 250.437 231.322 250.463 231.416 250.486L231.497 250.511Z" fill="black"></path>
    <path d="M230.876 136.559L230.924 244.632L230.876 136.559Z" fill="white"></path>
    <path d="M230.923 244.904C230.804 244.904 230.708 244.807 230.708 244.688L230.66 136.614C230.66 136.495 230.757 136.398 230.876 136.398C230.995 136.398 231.092 136.495 231.092 136.614L231.139 244.688C231.139 244.807 231.042 244.904 230.923 244.904Z" fill="black"></path>
    <path d="M218.399 138.531C218.363 138.531 218.326 138.522 218.292 138.503L213.618 135.813C213.514 135.754 213.479 135.621 213.538 135.518C213.597 135.415 213.73 135.379 213.833 135.439L218.507 138.129C218.61 138.188 218.646 138.32 218.586 138.423C218.547 138.493 218.474 138.531 218.399 138.531Z" fill="black"></path>
    <path d="M205.077 130.891C205.041 130.891 205.004 130.882 204.97 130.862L196.306 125.876C196.203 125.817 196.168 125.685 196.227 125.582C196.286 125.479 196.419 125.443 196.521 125.503L205.185 130.488C205.288 130.548 205.324 130.68 205.265 130.783C205.225 130.852 205.152 130.891 205.077 130.891ZM187.752 120.921C187.716 120.921 187.679 120.912 187.645 120.892L178.984 115.908C178.881 115.849 178.845 115.717 178.905 115.614C178.964 115.511 179.096 115.475 179.2 115.534L187.86 120.518C187.963 120.578 187.999 120.71 187.939 120.813C187.899 120.882 187.827 120.921 187.752 120.921ZM170.432 110.954C170.395 110.954 170.358 110.944 170.324 110.925L161.667 105.943C161.564 105.884 161.528 105.752 161.588 105.649C161.647 105.546 161.779 105.51 161.883 105.569L170.54 110.551C170.643 110.61 170.678 110.742 170.619 110.845C170.579 110.915 170.507 110.954 170.432 110.954ZM153.109 100.985C153.073 100.985 153.036 100.976 153.002 100.956L144.342 95.9728C144.239 95.9135 144.203 95.7815 144.263 95.6784C144.322 95.5752 144.454 95.5394 144.557 95.599L153.217 100.582C153.32 100.642 153.356 100.774 153.296 100.877C153.257 100.946 153.184 100.985 153.109 100.985ZM135.79 91.0181C135.753 91.0181 135.716 91.0088 135.682 90.9894L127.022 86.0056C126.919 85.946 126.883 85.8142 126.943 85.7111C127.002 85.608 127.134 85.5722 127.237 85.6317L135.898 90.6155C136.001 90.6749 136.037 90.8069 135.977 90.91C135.937 90.9793 135.864 91.0181 135.79 91.0181ZM118.468 81.0498C118.431 81.0498 118.394 81.0405 118.36 81.0211L109.697 76.0355C109.594 75.9762 109.558 75.8441 109.618 75.741C109.677 75.6379 109.809 75.6021 109.912 75.6616L118.576 80.6472C118.679 80.7065 118.715 80.8386 118.655 80.9417C118.615 81.0112 118.543 81.0498 118.468 81.0498Z" fill="black"></path>
    <path d="M101.252 71.1798C101.215 71.1798 101.178 71.1706 101.144 71.1511L96.47 68.4613C96.3666 68.4017 96.3312 68.2699 96.3906 68.1668C96.4499 68.0637 96.5822 68.0279 96.6853 68.0874L101.36 70.7773C101.463 70.8366 101.498 70.9686 101.439 71.0718C101.399 71.1412 101.326 71.1798 101.252 71.1798Z" fill="black"></path>
    <path d="M218.399 231.258C218.363 231.258 218.326 231.249 218.292 231.229L213.618 228.539C213.514 228.48 213.479 228.348 213.538 228.245C213.597 228.142 213.73 228.106 213.833 228.166L218.507 230.855C218.61 230.915 218.646 231.047 218.586 231.15C218.547 231.219 218.474 231.258 218.399 231.258Z" fill="black"></path>
    <path d="M205.077 223.617C205.041 223.617 205.004 223.608 204.97 223.588L196.306 218.603C196.203 218.544 196.168 218.412 196.227 218.308C196.286 218.205 196.419 218.17 196.521 218.229L205.185 223.215C205.288 223.274 205.324 223.406 205.265 223.509C205.225 223.579 205.152 223.617 205.077 223.617ZM187.752 213.647C187.716 213.647 187.679 213.638 187.645 213.618L178.984 208.635C178.881 208.575 178.845 208.443 178.905 208.34C178.964 208.237 179.096 208.201 179.2 208.261L187.86 213.244C187.963 213.304 187.999 213.436 187.939 213.539C187.899 213.608 187.827 213.647 187.752 213.647ZM170.432 203.68C170.395 203.68 170.358 203.671 170.324 203.651L161.667 198.669C161.564 198.61 161.528 198.478 161.588 198.375C161.647 198.272 161.779 198.236 161.883 198.296L170.54 203.277C170.643 203.337 170.678 203.469 170.619 203.572C170.579 203.641 170.507 203.68 170.432 203.68ZM153.109 193.711C153.073 193.711 153.036 193.702 153.002 193.683L144.342 188.699C144.239 188.64 144.203 188.508 144.263 188.405C144.322 188.301 144.454 188.266 144.557 188.325L153.217 193.309C153.32 193.368 153.356 193.5 153.296 193.603C153.257 193.672 153.184 193.711 153.109 193.711ZM135.79 183.744C135.753 183.744 135.716 183.735 135.682 183.716L127.022 178.732C126.919 178.672 126.883 178.54 126.943 178.437C127.002 178.334 127.134 178.298 127.237 178.358L135.898 183.342C136.001 183.401 136.037 183.533 135.977 183.636C135.937 183.706 135.864 183.744 135.79 183.744ZM118.468 173.776C118.431 173.776 118.394 173.767 118.36 173.748L109.697 168.762C109.594 168.703 109.558 168.571 109.618 168.467C109.677 168.364 109.809 168.329 109.912 168.388L118.576 173.374C118.679 173.433 118.715 173.565 118.655 173.668C118.615 173.737 118.543 173.776 118.468 173.776Z" fill="black"></path>
    <path d="M101.252 163.817C101.215 163.817 101.178 163.807 101.144 163.788L96.47 161.098C96.3666 161.038 96.3312 160.907 96.3906 160.804C96.4499 160.7 96.5822 160.665 96.6853 160.724L101.36 163.414C101.463 163.473 101.498 163.605 101.439 163.708C101.399 163.778 101.327 163.817 101.252 163.817Z" fill="black"></path>
    <path d="M130.784 36.5167C127.849 34.9845 124.705 33.6767 121.535 33.1343C116.21 32.2239 110.398 32.6381 105.41 34.7955C100.882 36.7545 96.0535 41.3757 99.1969 46.5642C100.714 49.069 103.371 50.3937 105.82 51.8025C109.939 54.1713 227.762 121.647 236.415 126.911C237.811 127.761 238.322 128.723 238.206 129.605C238.038 130.902 236.501 132.022 234.42 132.328C231.423 132.768 229.278 131.48 226.843 130.08C216.105 123.901 118.426 67.6897 105.02 59.9748C102.724 58.6544 99.9455 57.3039 97.2854 55.7268C93.0073 53.194 89.0354 50.0722 87.8834 45.5481C87.6547 44.6506 87.536 43.7876 87.5209 42.9635C87.5188 42.9614 87.5188 42.9614 87.5209 42.9592C87.2966 32.5216 102.968 27.7667 111.196 26.908C117.916 26.2092 124.65 26.6724 130.894 28.9843C132.24 29.4827 134.071 30.1767 135.706 30.9883C138.444 32.3469 140.82 33.8363 140.82 33.8363L140.716 42.3251L130.784 36.5167Z" fill="white"></path>
    <path d="M233.258 132.598C230.847 132.598 228.93 131.495 226.917 130.337L226.739 130.235C216.002 124.056 118.322 67.8446 104.916 60.1297C103.911 59.5517 102.823 58.9725 101.67 58.3595C100.198 57.5768 98.6758 56.7674 97.1797 55.8802C93.4104 53.6486 88.9241 50.4599 87.6786 45.569C87.4493 44.6692 87.325 43.7829 87.3095 42.9353C87.3095 42.9335 87.3095 42.9316 87.3095 42.9299C87.2107 38.2934 90.2477 34.2092 96.0923 31.1186C101.101 28.4702 107.169 27.0795 111.178 26.6612C118.511 25.8988 125.171 26.6014 130.973 28.7498C132.485 29.3096 134.242 29.9866 135.806 30.7629C138.522 32.1106 140.915 33.6064 140.939 33.6213C141.003 33.6612 141.041 33.7315 141.04 33.8068L140.936 42.2956C140.936 42.3724 140.894 42.4429 140.827 42.4807C140.76 42.5185 140.678 42.518 140.612 42.4792L130.683 36.6736C127.255 34.8838 124.252 33.7852 121.503 33.3149C115.866 32.351 110.183 32.9358 105.5 34.9614C102.837 36.1135 99.649 38.4148 98.6905 41.4184C98.1559 43.0934 98.3897 44.7762 99.3858 46.4202C100.722 48.6268 102.995 49.9154 105.193 51.1617C105.44 51.3022 105.687 51.4422 105.932 51.5831C106.521 51.9218 109.433 53.5908 114.018 56.2185C142.485 72.5334 229.113 122.181 236.532 126.694C237.89 127.522 238.562 128.554 238.424 129.601C238.243 130.996 236.611 132.192 234.455 132.509C234.042 132.57 233.644 132.598 233.258 132.598ZM87.7409 42.9286C87.7561 43.7428 87.8758 44.5954 88.0967 45.4625C89.3029 50.1995 93.7019 53.3198 97.3995 55.5087C98.8872 56.3907 100.405 57.1978 101.872 57.9781C103.028 58.593 104.12 59.1735 105.131 59.7552C118.538 67.4701 216.217 123.682 226.954 129.861L227.132 129.963C229.499 131.324 231.543 132.501 234.392 132.082C236.358 131.793 237.84 130.75 237.996 129.545C238.112 128.664 237.528 127.806 236.307 127.063C228.893 122.552 142.269 72.9066 113.803 56.5926C109.218 53.9646 106.306 52.2955 105.717 51.957C105.473 51.8165 105.226 51.6769 104.98 51.5369C102.733 50.2634 100.411 48.9463 99.0165 46.6437C97.9531 44.8884 97.705 43.0863 98.2793 41.2872C99.2818 38.1456 102.578 35.7549 105.329 34.5651C110.088 32.5067 115.858 31.9115 121.575 32.8892C124.371 33.3675 127.417 34.481 130.888 36.293C130.891 36.2945 130.894 36.2962 130.897 36.298L140.509 41.9191L140.607 33.9229C140.123 33.6245 137.993 32.3294 135.614 31.1488C134.068 30.3815 132.325 29.7096 130.823 29.1539C125.083 27.0286 118.489 26.3343 111.223 27.0899C107.254 27.5041 101.248 28.8799 96.2938 31.4994C92.3252 33.5986 87.6197 37.2839 87.7407 42.9223C87.7409 42.9243 87.7409 42.9264 87.7409 42.9286Z" fill="black"></path>
  </g>
  <mask id="mask1_945_68853" style="mask-type:luminance" maskUnits="userSpaceOnUse" x="139" y="18" width="155" height="196">
    <path d="M139.353 18.4336H293.754V213.494H139.353V18.4336Z" fill="white"></path>
  </mask>
  <g mask="url(#mask1_945_68853)">
    <path d="M289.746 103.359C292.256 107.859 293.605 113.006 293.532 118.334L293.04 200.719C292.972 205.739 290.191 208.152 286.488 210.548C288.184 208.682 290.23 205.266 290.269 202.401L291.393 120.155C291.467 114.755 290.08 109.541 287.504 104.999L289.746 103.359Z" fill="black"></path>
    <path d="M286.488 210.813C286.426 210.813 286.364 210.786 286.321 210.736C286.251 210.652 286.252 210.529 286.326 210.448C288.094 208.502 290.014 205.168 290.051 202.444L291.175 120.199C291.247 114.935 289.912 109.732 287.315 105.152C287.26 105.056 287.286 104.934 287.376 104.869L289.617 103.23C289.667 103.193 289.731 103.179 289.792 103.193C289.853 103.206 289.906 103.245 289.936 103.299C292.503 107.9 293.822 113.116 293.75 118.384L293.258 200.767C293.186 206.084 290.07 208.536 286.606 210.778C286.57 210.802 286.529 210.813 286.488 210.813ZM287.789 105.107C290.362 109.713 291.683 114.929 291.611 120.205L290.487 202.451C290.455 204.803 289.09 207.576 287.586 209.598C290.427 207.613 292.761 205.237 292.822 200.763L293.314 118.38C293.384 113.269 292.126 108.209 289.675 103.728L287.789 105.107Z" fill="black"></path>
    <path d="M287.56 105.124C285.063 100.721 281.448 96.9494 276.962 94.2511L155.064 20.97C151.782 18.9985 148.027 19.2854 145.188 21.0622C148.978 18.4533 154.468 18.0913 157.815 19.5172L279.101 92.4302C283.649 95.1656 287.301 99.004 289.801 103.485L287.56 105.124Z" fill="white"></path>
    <path d="M287.564 105.303C287.549 105.303 287.534 105.302 287.518 105.298C287.458 105.285 287.405 105.247 287.375 105.193C284.86 100.759 281.222 97.0261 276.853 94.3989L154.956 21.1176C151.965 19.321 148.268 19.3556 145.308 21.2079C145.207 21.2709 145.076 21.2417 145.01 21.1427C144.945 21.0434 144.971 20.9106 145.069 20.8433C149.169 18.0211 154.742 17.9299 157.905 19.2771C157.914 19.2811 157.923 19.2856 157.932 19.2909L279.217 92.2039C283.713 94.9076 287.44 98.7582 289.996 103.339C290.05 103.435 290.023 103.556 289.934 103.621L287.693 105.261C287.655 105.289 287.61 105.303 287.564 105.303ZM150.206 19.3576C151.923 19.3576 153.641 19.819 155.18 20.7438L277.078 94.0249C281.441 96.6489 285.086 100.359 287.632 104.765L289.521 103.384C287.005 98.9431 283.368 95.2092 278.992 92.5778L157.72 19.6727C155.592 18.7712 152.338 18.5433 149.22 19.4084C149.548 19.3744 149.877 19.3576 150.206 19.3576Z" fill="black"></path>
    <path d="M273.591 211.654L155.082 139.572C145.317 133.632 139.419 122.973 139.575 111.544L140.705 28.8297C140.805 21.546 148.766 17.1143 155.009 20.8674L276.907 94.1489C286.024 99.6295 291.541 109.542 291.396 120.178L290.273 202.425C290.157 210.92 280.849 216.069 273.591 211.654Z" fill="#DBF301"></path>
    <path d="M279.289 213.483C277.283 213.483 275.282 212.932 273.476 211.834L154.967 139.752C145.181 133.799 139.199 122.987 139.356 111.535L140.486 28.8201C140.534 25.3204 142.388 22.215 145.446 20.5126C148.504 18.8104 152.121 18.8706 155.121 20.6739L277.019 93.9554C286.167 99.455 291.759 109.502 291.613 120.174L290.49 202.421C290.434 206.49 288.275 210.095 284.715 212.065C283.003 213.012 281.144 213.483 279.289 213.483ZM273.703 211.461C277.044 213.493 281.081 213.576 284.503 211.683C287.925 209.79 290 206.325 290.053 202.415L291.177 120.169C291.321 109.65 285.809 99.7491 276.794 94.3292L154.896 21.0477C152.032 19.3259 148.578 19.2683 145.658 20.8937C142.738 22.5192 140.968 25.4844 140.922 28.826L139.792 111.541C139.638 122.84 145.539 133.507 155.194 139.379L273.703 211.461Z" fill="black"></path>
    <path d="M291.032 151.478L140.327 60.6818L140.581 37.7734L291.397 128.1L291.032 151.478Z" fill="#87C159"></path>
    <path d="M291.031 151.754C290.992 151.754 290.953 151.743 290.919 151.723L140.213 60.9264C140.147 60.8865 140.107 60.8146 140.108 60.7371L140.361 37.829C140.362 37.7509 140.405 37.6792 140.473 37.641C140.541 37.6029 140.625 37.6042 140.691 37.6443L291.508 127.971C291.575 128.011 291.615 128.083 291.614 128.161L291.25 151.539C291.248 151.617 291.206 151.688 291.137 151.726C291.104 151.745 291.068 151.754 291.031 151.754ZM140.545 60.6172L290.819 151.153L291.176 128.28L140.793 38.2137L140.545 60.6172Z" fill="black"></path>
    <path d="M257.517 179.499C262.91 176.639 263.275 166.765 258.332 157.444C253.389 148.122 245.01 142.884 239.618 145.744C234.225 148.604 233.86 158.478 238.803 167.799C243.746 177.121 252.124 182.359 257.517 179.499Z" fill="#87C159"></path>
    <path d="M254.272 180.488C249.069 180.488 242.665 175.559 238.603 167.898C236.195 163.357 234.954 158.541 235.109 154.338C235.266 150.091 236.828 146.97 239.508 145.549C242.188 144.128 245.648 144.586 249.251 146.839C252.818 149.068 256.108 152.797 258.516 157.339C263.507 166.751 263.101 176.777 257.611 179.688C256.589 180.23 255.462 180.488 254.272 180.488ZM242.88 145.175C241.737 145.175 240.67 145.426 239.712 145.934C237.176 147.279 235.696 150.269 235.545 154.354C235.393 158.482 236.615 163.219 238.988 167.694C242.973 175.208 249.215 180.059 254.245 180.06C255.373 180.06 256.44 179.816 257.407 179.303C262.684 176.504 263.009 166.743 258.131 157.543C255.758 153.068 252.523 149.398 249.02 147.208C246.863 145.86 244.767 145.175 242.88 145.175Z" fill="black"></path>
    <path d="M275.926 190.675C281.319 187.815 281.684 177.94 276.741 168.619C271.798 159.298 263.42 154.06 258.027 156.92C252.634 159.779 252.269 169.654 257.212 178.975C262.155 188.296 270.533 193.534 275.926 190.675Z" fill="#ADC4CB"></path>
    <path d="M272.65 191.675C270.681 191.675 268.507 190.969 266.278 189.575C262.712 187.345 259.421 183.616 257.013 179.075C252.022 169.663 252.428 159.637 257.919 156.725C263.409 153.814 271.936 159.103 276.927 168.515C279.335 173.057 280.575 177.873 280.42 182.076C280.263 186.322 278.701 189.444 276.021 190.865C274.999 191.407 273.863 191.675 272.65 191.675ZM261.285 156.354C260.156 156.354 259.09 156.598 258.123 157.111C252.845 159.91 252.52 169.671 257.398 178.871C259.771 183.345 263.007 187.016 266.509 189.205C269.975 191.372 273.28 191.825 275.817 190.48C278.353 189.135 279.833 186.145 279.984 182.06C280.137 177.932 278.914 173.195 276.541 168.72C272.557 161.206 266.314 156.354 261.285 156.354Z" fill="black"></path>
    <path d="M258.186 157.622C258.093 157.447 257.998 157.271 257.9 157.098C257.894 157.1 257.889 157.103 257.884 157.106C252.49 159.965 252.125 169.84 257.067 179.16C257.16 179.339 257.255 179.514 257.353 179.687C257.358 179.685 257.367 179.68 257.372 179.677C262.763 176.82 263.128 166.945 258.186 157.622Z" fill="white"></path>
    <path d="M257.355 179.866C257.278 179.866 257.205 179.825 257.165 179.755C257.065 179.58 256.969 179.401 256.875 179.221C251.885 169.81 252.292 159.784 257.783 156.873C257.785 156.872 257.802 156.863 257.804 156.863C257.908 156.811 258.034 156.85 258.09 156.95C258.19 157.125 258.286 157.303 258.38 157.481C260.788 162.023 262.028 166.839 261.873 171.043C261.716 175.289 260.154 178.41 257.475 179.83C257.472 179.832 257.45 179.843 257.447 179.845C257.418 179.859 257.386 179.866 257.355 179.866ZM257.816 157.353C252.702 160.282 252.44 169.925 257.261 179.018C257.32 179.131 257.379 179.242 257.44 179.352C259.876 177.959 261.29 175.015 261.438 171.026C261.59 166.898 260.367 162.16 257.995 157.685V157.684C257.936 157.574 257.877 157.463 257.816 157.353Z" fill="black"></path>
  </g>
  <mask id="mask2_945_68853" style="mask-type:luminance" maskUnits="userSpaceOnUse" x="86" y="42" width="154" height="210">
    <path d="M86.8457 42.0078H239.022V251.733H86.8457V42.0078Z" fill="white"></path>
  </mask>
  <g mask="url(#mask2_945_68853)">
    <path d="M238.736 248.787C238.686 248.986 238.602 249.227 238.456 249.481C238.439 249.512 238.42 249.542 238.4 249.572C238.168 249.941 237.801 250.325 237.224 250.631C237.224 250.631 237.222 250.631 237.222 250.633C236.477 251.028 235.751 251.256 235.082 251.378C233.483 251.673 232.22 251.358 231.849 251.247C231.836 251.245 231.823 251.241 231.812 251.239C231.771 251.226 231.745 251.217 231.738 251.215C231.641 251.191 231.543 251.165 231.45 251.139C231.439 251.137 231.428 251.135 231.419 251.13C230.024 250.742 229.121 250.15 229.121 250.15C229.119 250.147 229.104 250.139 229.076 250.123C229.061 250.115 229.043 250.104 229.022 250.093C226.097 248.416 159.985 210.381 126.03 190.845C125.516 190.548 125.01 190.257 124.511 189.971C124.463 189.943 124.418 189.917 124.37 189.888C124.019 189.687 123.671 189.487 123.329 189.289C123.155 189.19 122.986 189.092 122.814 188.994C122.563 188.849 122.311 188.704 122.063 188.562C120.976 187.935 119.933 187.336 118.939 186.764C118.785 186.675 118.633 186.588 118.483 186.501C118.303 186.399 118.125 186.297 117.949 186.195C117.659 186.028 117.374 185.863 117.092 185.703C114.966 184.479 113.102 183.405 111.546 182.511C111.366 182.406 111.188 182.304 111.012 182.202C110.554 181.94 110.127 181.695 109.732 181.467C109.586 181.382 109.445 181.302 109.309 181.224C109.063 181.083 108.833 180.95 108.616 180.825C108.545 180.783 108.473 180.744 108.406 180.703C108.363 180.679 108.319 180.655 108.278 180.629C108.117 180.538 107.968 180.451 107.827 180.371C107.768 180.336 107.709 180.304 107.655 180.271C107.429 180.143 107.232 180.028 107.061 179.93C106.889 179.831 106.746 179.748 106.629 179.681C106.594 179.659 106.559 179.64 106.527 179.622C106.483 179.598 106.446 179.577 106.416 179.559C106.379 179.538 106.349 179.52 106.327 179.507C106.295 179.488 106.277 179.479 106.277 179.479C106.277 179.479 106.275 179.477 106.269 179.475C106.078 179.377 103.022 177.81 99.5873 175.805C99.5852 175.803 99.583 175.801 99.5808 175.801C96.4388 173.965 92.9799 171.763 91.1072 169.984C90.8252 169.719 90.58 169.461 90.3803 169.215C90.3564 169.189 90.3369 169.165 90.3174 169.142C87.8871 166.112 87.3272 163.326 87.2122 161.905C87.21 161.894 87.21 161.885 87.21 161.874C87.1601 161.265 87.1949 160.915 87.1949 160.915L87.197 42.4653C87.1949 42.4631 87.1949 42.4631 87.197 42.4609L96.4431 47.7686L238.756 129.458V129.61L238.804 248.292C238.804 248.292 238.81 248.491 238.736 248.787Z" fill="white"></path>
    <path d="M233.743 251.762C232.78 251.762 232.063 251.581 231.8 251.503C231.791 251.501 231.782 251.499 231.774 251.497C231.771 251.496 231.753 251.492 231.749 251.491L231.672 251.466C231.59 251.447 231.49 251.42 231.394 251.393C231.394 251.394 231.375 251.39 231.351 251.381C229.947 250.988 229.043 250.401 229.005 250.376C229.004 250.376 229.004 250.375 229.003 250.375L228.975 250.36C228.973 250.358 228.957 250.349 228.955 250.348L228.927 250.332C226.012 248.661 160.404 210.916 125.924 191.078C125.41 190.781 124.905 190.49 124.405 190.204L122.709 189.228C122.457 189.082 122.205 188.937 121.958 188.796C121.363 188.452 120.781 188.118 120.213 187.791L118.377 186.734C118.198 186.632 118.019 186.53 117.843 186.428L117.556 186.262C117.364 186.152 117.175 186.043 116.987 185.936L114.91 184.741C113.628 184.002 112.467 183.334 111.44 182.744L110.906 182.435C110.449 182.173 110.021 181.928 109.626 181.7C109.502 181.628 109.381 181.559 109.264 181.492L109.204 181.458C108.958 181.316 108.728 181.184 108.51 181.058L108.443 181.019C108.393 180.991 108.343 180.963 108.295 180.934C108.257 180.913 108.21 180.886 108.165 180.858L107.546 180.503C107.421 180.432 107.301 180.363 107.189 180.298L106.956 180.165C106.783 180.064 106.64 179.982 106.523 179.915C106.486 179.892 106.456 179.875 106.428 179.86L106.218 179.739C106.198 179.727 106.185 179.72 106.182 179.719C106.181 179.718 106.18 179.718 106.179 179.717C106.177 179.716 106.175 179.715 106.172 179.714C106.041 179.647 102.929 178.051 99.4805 176.039C99.4762 176.036 99.472 176.033 99.4679 176.031C95.406 173.657 92.5434 171.691 90.96 170.187C90.6686 169.913 90.4176 169.648 90.2144 169.398C90.1958 169.378 90.1737 169.352 90.1515 169.325C87.6813 166.246 87.1158 163.404 86.999 161.977C86.9953 161.953 86.9953 161.933 86.9953 161.92C86.9452 161.316 86.9797 160.955 86.9812 160.94L86.9825 42.5103C86.9819 42.4539 87.0025 42.3973 87.0442 42.3545C87.1134 42.2836 87.2217 42.2686 87.3076 42.3179L238.867 129.315C238.934 129.353 238.976 129.425 238.976 129.503V129.655L239.023 248.337C239.023 248.339 239.03 248.564 238.949 248.885C238.884 249.146 238.782 249.398 238.647 249.634C238.628 249.668 238.606 249.701 238.585 249.735C238.295 250.194 237.878 250.574 237.344 250.86C237.338 250.863 237.332 250.867 237.326 250.87C236.63 251.239 235.889 251.497 235.123 251.636C234.628 251.728 234.162 251.762 233.743 251.762ZM231.873 251.075C231.878 251.076 231.883 251.077 231.884 251.077C231.887 251.078 231.912 251.084 231.914 251.085C232.255 251.186 233.49 251.496 235.046 251.209C235.763 251.079 236.458 250.838 237.11 250.494C237.115 250.49 237.12 250.487 237.125 250.485V250.485C237.598 250.234 237.967 249.903 238.219 249.502C238.238 249.473 238.255 249.446 238.271 249.419C238.386 249.217 238.473 249.002 238.529 248.779C238.593 248.521 238.589 248.345 238.589 248.343L238.542 129.629L87.4165 42.881L87.4144 160.961C87.4131 160.985 87.3814 161.323 87.4287 161.902C87.4291 161.907 87.4293 161.92 87.4293 161.925C87.542 163.306 88.087 166.057 90.4889 169.051C90.5048 169.07 90.5217 169.091 90.5425 169.114C90.742 169.358 90.9798 169.609 91.258 169.87C92.8188 171.354 95.6564 173.301 99.6927 175.659L99.6925 175.659C99.6962 175.661 99.6994 175.663 99.7029 175.666C103.134 177.668 106.23 179.255 106.369 179.327C106.372 179.328 106.374 179.329 106.376 179.33C106.378 179.332 106.399 179.341 106.441 179.367L106.634 179.478C106.668 179.496 106.707 179.518 106.746 179.542C106.857 179.606 107 179.688 107.172 179.788L107.405 179.922C107.516 179.986 107.636 180.055 107.765 180.128L108.387 180.486C108.434 180.515 108.473 180.537 108.513 180.559C108.565 180.59 108.61 180.616 108.656 180.642L108.727 180.682C108.944 180.808 109.174 180.94 109.419 181.081L109.479 181.115C109.597 181.183 109.718 181.252 109.843 181.325C110.237 181.552 110.665 181.797 111.122 182.06L111.657 182.368C112.683 182.958 113.845 183.627 115.127 184.365L117.203 185.56C117.39 185.667 117.58 185.776 117.772 185.887L118.06 186.052C118.236 186.154 118.413 186.256 118.592 186.358L120.429 187.415C120.997 187.742 121.579 188.077 122.174 188.42C122.421 188.561 122.673 188.706 122.925 188.852L124.624 189.829C125.121 190.115 125.627 190.406 126.141 190.703C160.621 210.541 226.228 248.285 229.132 249.95C229.141 249.955 229.159 249.965 229.174 249.974C229.207 249.992 229.229 250.004 229.246 250.016C229.306 250.054 230.179 250.605 231.48 250.967C231.486 250.968 231.492 250.97 231.497 250.972C231.502 250.973 231.509 250.975 231.511 250.975C231.602 251.001 231.697 251.026 231.792 251.05L231.873 251.075Z" fill="black"></path>
    <path d="M231.244 136.461L231.292 245.162L231.244 136.461Z" fill="white"></path>
    <path d="M231.295 245.353C231.175 245.353 231.078 245.256 231.078 245.136L231.03 136.436C231.03 136.316 231.127 136.219 231.247 136.219C231.367 136.219 231.464 136.316 231.464 136.436L231.512 245.136C231.512 245.256 231.415 245.353 231.295 245.353Z" fill="black"></path>
    <path d="M218.701 138.452C218.664 138.452 218.627 138.443 218.593 138.423L213.891 135.718C213.787 135.658 213.751 135.525 213.811 135.421C213.871 135.318 214.004 135.282 214.108 135.341L218.809 138.047C218.913 138.107 218.949 138.239 218.889 138.343C218.849 138.413 218.776 138.452 218.701 138.452Z" fill="black"></path>
    <path d="M205.294 130.712C205.258 130.712 205.221 130.702 205.186 130.683L196.472 125.668C196.368 125.608 196.333 125.475 196.392 125.372C196.452 125.268 196.585 125.232 196.689 125.292L205.403 130.307C205.507 130.366 205.542 130.499 205.483 130.603C205.443 130.673 205.37 130.712 205.294 130.712ZM187.869 120.684C187.832 120.684 187.795 120.674 187.761 120.655L179.05 115.642C178.946 115.582 178.91 115.449 178.97 115.346C179.03 115.242 179.162 115.206 179.266 115.266L187.977 120.279C188.081 120.338 188.117 120.471 188.057 120.575C188.017 120.645 187.944 120.684 187.869 120.684ZM170.445 110.658C170.41 110.658 170.373 110.649 170.34 110.63L170.333 110.626L161.633 105.619C161.529 105.559 161.493 105.426 161.553 105.323C161.613 105.219 161.746 105.183 161.849 105.243L170.55 110.25C170.653 110.309 170.693 110.444 170.633 110.548C170.592 110.618 170.52 110.658 170.445 110.658ZM153.025 100.632C152.988 100.632 152.951 100.623 152.917 100.603L144.207 95.5911C144.103 95.5314 144.067 95.3986 144.127 95.2949C144.187 95.1911 144.32 95.1551 144.423 95.215L153.133 100.227C153.237 100.287 153.273 100.42 153.213 100.523C153.173 100.593 153.1 100.632 153.025 100.632ZM135.605 90.6076C135.568 90.6076 135.531 90.5983 135.497 90.5785L126.786 85.5657C126.682 85.5061 126.647 85.3733 126.706 85.2695C126.766 85.1656 126.899 85.1298 127.003 85.1897L135.713 90.2025C135.817 90.2621 135.853 90.3949 135.793 90.4987C135.753 90.5685 135.68 90.6076 135.605 90.6076ZM118.182 80.5814C118.146 80.5814 118.108 80.5721 118.074 80.5523L109.361 75.5378C109.257 75.4782 109.221 75.3454 109.281 75.2416C109.341 75.1379 109.474 75.1019 109.577 75.1618L118.291 80.1763C118.395 80.236 118.431 80.3688 118.371 80.4725C118.33 80.5424 118.258 80.5814 118.182 80.5814Z" fill="black"></path>
    <path d="M100.871 70.6474C100.834 70.6474 100.797 70.6381 100.763 70.6183L96.0615 67.9128C95.9576 67.8532 95.9218 67.7204 95.9817 67.6166C96.0415 67.5129 96.1741 67.4769 96.2779 67.5368L100.979 70.2423C101.083 70.3019 101.119 70.4347 101.059 70.5384C101.019 70.6083 100.946 70.6474 100.871 70.6474Z" fill="black"></path>
    <path d="M218.701 231.62C218.664 231.62 218.627 231.611 218.592 231.591L213.891 228.885C213.787 228.826 213.751 228.693 213.811 228.589C213.871 228.486 214.004 228.45 214.107 228.509L218.809 231.215C218.913 231.275 218.949 231.407 218.889 231.511C218.849 231.581 218.776 231.62 218.701 231.62Z" fill="black"></path>
    <path d="M205.294 223.973C205.258 223.973 205.22 223.964 205.186 223.944L196.472 218.93C196.368 218.87 196.333 218.737 196.392 218.633C196.452 218.53 196.585 218.494 196.689 218.554L205.403 223.568C205.507 223.628 205.542 223.761 205.483 223.864C205.443 223.934 205.369 223.973 205.294 223.973ZM187.869 213.945C187.832 213.945 187.795 213.936 187.76 213.916L179.05 208.903C178.946 208.844 178.91 208.711 178.97 208.607C179.03 208.503 179.162 208.467 179.266 208.527L187.977 213.54C188.081 213.6 188.117 213.733 188.057 213.836C188.017 213.906 187.944 213.945 187.869 213.945ZM170.447 203.92C170.411 203.92 170.374 203.911 170.34 203.891L170.338 203.89L161.633 198.88C161.529 198.821 161.493 198.688 161.553 198.584C161.612 198.481 161.745 198.445 161.849 198.504L170.554 203.514C170.658 203.574 170.695 203.707 170.635 203.811C170.595 203.881 170.522 203.92 170.447 203.92ZM153.025 193.894C152.988 193.894 152.951 193.884 152.917 193.865L144.207 188.853C144.103 188.793 144.067 188.66 144.127 188.556C144.187 188.453 144.32 188.417 144.423 188.477L153.133 193.489C153.237 193.548 153.273 193.681 153.213 193.785C153.173 193.855 153.1 193.894 153.025 193.894ZM135.605 183.869C135.568 183.869 135.531 183.86 135.497 183.84L126.786 178.827C126.682 178.768 126.646 178.635 126.706 178.531C126.766 178.427 126.899 178.391 127.003 178.451L135.713 183.464C135.817 183.524 135.853 183.656 135.793 183.76C135.753 183.83 135.68 183.869 135.605 183.869ZM118.182 173.843C118.146 173.843 118.108 173.834 118.074 173.814L109.361 168.8C109.257 168.74 109.221 168.607 109.281 168.503C109.341 168.399 109.474 168.364 109.577 168.424L118.291 173.438C118.395 173.498 118.431 173.631 118.371 173.734C118.33 173.804 118.258 173.843 118.182 173.843Z" fill="black"></path>
    <path d="M100.871 163.819C100.834 163.819 100.797 163.81 100.763 163.79L96.0615 161.085C95.9576 161.025 95.9218 160.892 95.9817 160.789C96.0415 160.685 96.1741 160.649 96.2779 160.709L100.979 163.414C101.083 163.474 101.119 163.607 101.059 163.71C101.019 163.78 100.946 163.819 100.871 163.819Z" fill="black"></path>
    <path d="M98.8076 45.8833C100.333 48.4026 103.006 49.735 105.469 51.1519C109.612 53.5345 228.118 121.401 236.822 126.696C238.226 127.551 238.74 128.519 238.623 129.406C238.454 130.71 236.909 131.837 234.815 132.145C231.801 132.587 229.644 131.292 227.194 129.884C216.394 123.669 118.148 67.1313 104.664 59.3716C102.355 58.0436 99.5606 56.6853 96.8851 55.099C92.5821 52.5515 88.5873 49.4116 87.4285 44.8613C87.1985 43.9586 87.0792 43.0906 87.064 42.2617" fill="white"></path>
    <path d="M233.641 132.412C231.216 132.412 229.288 131.303 227.263 130.138L227.085 130.035C216.285 123.821 118.039 67.283 104.555 59.5233C103.544 58.9419 102.449 58.3595 101.29 57.7428C99.8091 56.9556 98.2785 56.1414 96.7734 55.2492C92.9821 53.0046 88.4697 49.7974 87.217 44.8782C86.9864 43.9729 86.8614 43.0817 86.8457 42.2289C86.8436 42.1091 86.9388 42.0102 87.0586 42.008C87.1884 42.0028 87.2776 42.1013 87.2797 42.2211C87.2947 43.0402 87.4153 43.8982 87.6375 44.771C88.8508 49.5355 93.2753 52.6739 96.9943 54.8755C98.4907 55.7626 100.017 56.5743 101.493 57.3594C102.656 57.9778 103.754 58.5618 104.771 59.1468C118.255 66.9065 216.501 123.444 227.301 129.659L227.479 129.761C229.86 131.131 231.915 132.314 234.782 131.893C236.759 131.602 238.249 130.553 238.406 129.342C238.523 128.456 237.936 127.593 236.708 126.845C229.251 122.308 142.124 72.3747 113.493 55.9659C108.881 53.3229 105.952 51.644 105.36 51.3034C105.114 51.1621 104.867 51.0217 104.618 50.8806C102.359 49.5997 100.023 48.275 98.6207 45.959C98.5586 45.8566 98.5914 45.7232 98.6938 45.6611C98.7966 45.599 98.9297 45.6318 98.9919 45.7342C100.336 47.9536 102.622 49.2497 104.833 50.5033C105.082 50.6446 105.33 50.7856 105.576 50.9273C106.169 51.2678 109.098 52.9466 113.709 55.5896C142.341 71.9991 229.472 121.935 236.933 126.474C238.3 127.306 238.976 128.345 238.837 129.398C238.655 130.801 237.013 132.004 234.845 132.323C234.429 132.384 234.029 132.412 233.641 132.412Z" fill="black"></path>
  </g>
  <path d="M113.613 253.766C101.382 253.719 90.8584 250.709 82.0409 244.736C73.2709 238.762 66.5156 230.111 61.775 218.781C57.0818 207.451 54.759 193.822 54.8064 177.894C54.8064 162.013 57.153 148.478 61.8461 137.291C66.5867 126.103 73.342 117.594 82.1121 111.763C90.9295 105.884 101.43 102.945 113.613 102.945C125.796 102.945 136.273 105.884 145.043 111.763C153.861 117.641 160.64 126.174 165.38 137.362C170.121 148.502 172.467 162.013 172.42 177.894C172.42 193.869 170.05 207.522 165.309 218.852C160.616 230.182 153.884 238.834 145.114 244.807C136.344 250.78 125.844 253.766 113.613 253.766ZM113.613 228.238C121.957 228.238 128.617 224.043 133.595 215.652C138.572 207.261 141.037 194.675 140.99 177.894C140.99 166.848 139.852 157.651 137.577 150.304C135.349 142.956 132.172 137.433 128.048 133.735C123.971 130.038 119.16 128.189 113.613 128.189C105.317 128.189 98.6803 132.337 93.7027 140.633C88.7252 148.929 86.2126 161.349 86.1652 177.894C86.1652 189.081 87.2793 198.42 89.5073 205.91C91.7828 213.353 94.9827 218.947 99.107 222.692C103.231 226.39 108.067 228.238 113.613 228.238Z" fill="#ADC4CB"></path>
  <path d="M120.734 251.524C108.503 251.477 97.979 248.467 89.1616 242.493C80.3915 236.52 73.6362 227.869 68.8956 216.539C64.2025 205.209 61.8796 191.58 61.927 175.651C61.927 159.771 64.2736 146.236 68.9667 135.049C73.7073 123.861 80.4626 115.351 89.2327 109.521C98.0501 103.642 108.55 100.703 120.734 100.703C132.917 100.703 143.394 103.642 152.164 109.521C160.981 115.399 167.76 123.932 172.501 135.12C177.241 146.26 179.588 159.771 179.541 175.651C179.541 191.627 177.17 205.28 172.43 216.61C167.736 227.94 161.005 236.591 152.235 242.564C143.465 248.538 132.964 251.524 120.734 251.524ZM120.734 225.996C129.077 225.996 135.738 221.801 140.715 213.41C145.693 205.019 148.158 192.433 148.111 175.651C148.111 164.606 146.973 155.409 144.697 148.061C142.469 140.713 139.293 135.191 135.169 131.493C131.092 127.795 126.28 125.947 120.734 125.947C112.438 125.947 105.801 130.095 100.823 138.391C95.8458 146.687 93.3333 159.107 93.2858 175.651C93.2858 186.839 94.3999 196.178 96.6279 203.668C98.9034 211.111 102.103 216.705 106.228 220.45C110.352 224.147 115.187 225.996 120.734 225.996Z" fill="#DBF301"></path>
  <path d="M182.531 242.406V238.895C182.531 236.23 183.092 233.781 184.214 231.548C185.357 229.295 187.007 227.496 189.164 226.152C191.342 224.787 193.995 224.104 197.122 224.104C200.293 224.104 202.957 224.776 205.113 226.119C207.292 227.463 208.931 229.262 210.031 231.516C211.153 233.748 211.713 236.208 211.713 238.895V242.406C211.713 245.072 211.153 247.532 210.031 249.786C208.909 252.018 207.259 253.806 205.081 255.15C202.903 256.515 200.25 257.198 197.122 257.198C193.952 257.198 191.288 256.515 189.131 255.15C186.974 253.806 185.335 252.018 184.214 249.786C183.092 247.532 182.531 245.072 182.531 242.406ZM191.946 238.895V242.406C191.946 243.945 192.313 245.397 193.046 246.762C193.801 248.128 195.16 248.81 197.122 248.81C199.085 248.81 200.422 248.139 201.134 246.795C201.867 245.451 202.234 243.988 202.234 242.406V238.895C202.234 237.313 201.889 235.84 201.199 234.474C200.509 233.109 199.15 232.426 197.122 232.426C195.181 232.426 193.833 233.109 193.078 234.474C192.323 235.84 191.946 237.313 191.946 238.895ZM148.529 204.306V200.795C148.529 198.108 149.1 195.648 150.243 193.416C151.387 191.162 153.037 189.363 155.193 188.019C157.372 186.676 160.003 186.004 163.087 186.004C166.28 186.004 168.954 186.676 171.111 188.019C173.268 189.363 174.907 191.162 176.028 193.416C177.15 195.648 177.711 198.108 177.711 200.795V204.306C177.711 206.994 177.139 209.453 175.996 211.686C174.875 213.918 173.225 215.706 171.046 217.05C168.889 218.372 166.236 219.033 163.087 219.033C159.938 219.033 157.275 218.361 155.096 217.017C152.94 215.652 151.3 213.864 150.179 211.653C149.079 209.421 148.529 206.972 148.529 204.306ZM158.008 200.795V204.306C158.008 205.888 158.375 207.351 159.108 208.695C159.863 210.039 161.189 210.71 163.087 210.71C165.072 210.71 166.42 210.039 167.132 208.695C167.865 207.351 168.232 205.888 168.232 204.306V200.795C168.232 199.213 167.886 197.74 167.196 196.374C166.506 195.009 165.136 194.326 163.087 194.326C161.168 194.326 159.841 195.02 159.108 196.407C158.375 197.794 158.008 199.257 158.008 200.795ZM152.799 254.89L198.352 188.312H206.828L161.276 254.89H152.799Z" fill="#ADC4CB"></path>
</svg>
